# xmcd
# 
# Track frame offsets:
#     150
#     13068
#     23891
#     40447
#     56270
#     76972
#     92829
#     109856
#     122861
#     138338
#     157123
#     171514
#     190045
#     204278
# 
# Disc length: 2910
# 
# Revision: 2
# Processed by: cddbd v1.5.2PL0 Copyright (c) Steve Scherf et al.
# Submitted via: fre:ac v1.0.31
# 
DISCID=bb0b5c0e
DTITLE=R.E.M. - Fables Of The Reconstruction Disc 2
DYEAR=0
DGENRE=
TTITLE0=Auctioneer (Another Engine) [Demo]
TTITLE1=Bandwagon [Demo]
TTITLE2=Cant Get There From Here [Demo]
TTITLE3=Driver 8 [Demo]
TTITLE4=Feeling Gravitys Pull [Demo]
TTITLE5=Good Advices [Demo]
TTITLE6=Green Grow The Rushes [Demo]
TTITLE7=Hyena [Demo]
TTITLE8=Kohoutek [Demo]
TTITLE9=Life And How To Live It [Demo]
TTITLE10=Maps And Legends [Demo]
TTITLE11=Old Man Kensey [Demo]
TTITLE12=Throw Those Trolls Away [Demo]
TTITLE13=Wendell Gee [Demo]
EXTD=
EXTT0=
EXTT1=
EXTT2=
EXTT3=
EXTT4=
EXTT5=
EXTT6=
EXTT7=
EXTT8=
EXTT9=
EXTT10=
EXTT11=
EXTT12=
EXTT13=
PLAYORDER=
